<?xml version="1.0" encoding="UTF-8" standalone="no"?>
<!-- Created with Inkscape (http://www.inkscape.org/) -->

<svg
   width="179.54707mm"
   height="52.502251mm"
   viewBox="0 0 179.54707 52.502251"
   version="1.1"
   id="svg5"
   xml:space="preserve"
   xmlns:inkscape="http://www.inkscape.org/namespaces/inkscape"
   xmlns:sodipodi="http://sodipodi.sourceforge.net/DTD/sodipodi-0.dtd"
   xmlns="http://www.w3.org/2000/svg"
   xmlns:svg="http://www.w3.org/2000/svg"><sodipodi:namedview
     id="namedview7"
     pagecolor="#505050"
     bordercolor="#eeeeee"
     borderopacity="1"
     inkscape:showpageshadow="0"
     inkscape:pageopacity="0"
     inkscape:pagecheckerboard="0"
     inkscape:deskcolor="#505050"
     inkscape:document-units="mm"
     showgrid="false" /><defs
     id="defs2" /><g
     inkscape:label="Capa 1"
     inkscape:groupmode="layer"
     id="layer1"
     transform="translate(-8.6170208,-123.13001)"><path
       style="fill:#000000;stroke-width:0.220471"
       d="m 174.01571,171.21213 c 1.28604,-0.6892 1.8985,-1.69239 1.91986,-3.1447 0.0151,-1.02771 -0.0892,-1.37766 -0.61303,-2.05662 l -0.63125,-0.81819 1.60871,-0.0622 1.60871,-0.0622 v -0.62643 -0.62643 H 160.8194 143.7301 l -0.003,-0.58273 c -0.002,-0.3205 -0.0665,-0.94032 -0.1447,-1.37737 l -0.14218,-0.79463 h 18.02048 c 20.01115,0 18.50729,0.11423 18.95592,-1.43989 0.12464,-0.4318 1.87314,-7.17397 3.88554,-14.98259 2.0124,-7.80862 3.72851,-14.45146 3.81358,-14.76186 0.11498,-0.41957 0.0318,-0.67782 -0.324,-1.00654 l -0.47865,-0.44217 h -23.59681 -23.59682 l -0.2594,-1.8685 c -0.14267,-1.02767 -0.25939,-2.21963 -0.25939,-2.64878 v -0.78029 h -3.79807 -3.79807 l 0.0706,0.90059 0.0706,0.90059 2.75264,0.10595 2.75264,0.10595 0.161,1.16546 c 0.27084,1.96059 1.74635,15.87532 2.83123,26.69977 0.3329,3.32157 0.77647,7.37422 0.9857,9.00587 l 0.38042,2.96664 0.97489,0.0652 c 0.53619,0.0358 0.97489,0.11122 0.97489,0.16751 0,0.0563 -0.21848,0.37534 -0.48552,0.70899 -1.84075,2.29998 -0.0132,5.73328 3.05183,5.73328 2.3849,0 3.96356,-1.44271 3.96356,-3.62222 0,-0.94015 -0.13115,-1.37031 -0.63024,-2.06699 l -0.63024,-0.87978 h 10.08402 10.084 l -0.6759,1.18699 c -0.76747,1.34777 -0.82512,1.88718 -0.32088,3.00201 0.4195,0.92748 1.12745,1.6702 1.9848,2.08227 0.91081,0.43778 2.67398,0.36697 3.6308,-0.1458 z m 2.97798,-12.32362 c 0.002,-0.14568 0.0665,-0.62247 0.1447,-1.05952 0.13653,-0.76299 0.17851,-0.79464 1.05426,-0.79464 0.69634,0 0.88233,0.0716 0.78629,0.30281 -0.0692,0.16655 -0.19494,0.64333 -0.27946,1.05952 -0.1403,0.69087 -0.22129,0.75671 -0.93099,0.75671 -0.47029,0 -0.77633,-0.10463 -0.7748,-0.26488 z m -11.00996,-0.31786 c 0.002,-0.3205 0.0654,-0.79728 0.14145,-1.05951 0.13788,-0.47527 0.15369,-0.47679 4.9587,-0.47679 h 4.82038 l -0.14219,0.79464 c -0.0782,0.43705 -0.14332,0.91384 -0.1447,1.05952 -0.002,0.20342 -1.12023,0.26488 -4.81965,0.26488 h -4.81712 l 0.003,-0.58274 z m -9.26875,0.24755 c -0.0765,-0.18435 -0.13923,-0.66113 -0.13923,-1.05952 v -0.72433 h 4.15571 4.15572 l -0.13832,0.47679 c -0.076,0.26223 -0.13972,0.73901 -0.14145,1.05951 l -0.003,0.58274 h -3.87504 c -3.32192,0 -3.8949,-0.0478 -4.01426,-0.33519 z m -10.08888,-0.32701 c -0.33721,-1.55757 -0.62865,-1.45684 4.21498,-1.45684 h 4.35835 v 0.72433 c 0,0.39839 0.0627,0.87517 0.13923,1.05952 0.12396,0.29839 -0.33874,0.33519 -4.21498,0.33519 h -4.35421 z m -3.35478,0.26487 c 0,-0.21852 -0.0645,-0.6953 -0.14337,-1.0595 -0.14216,-0.6567 -0.13543,-0.66221 0.81006,-0.66221 1.01043,0 1.04354,0.0344 1.27562,1.3244 l 0.14296,0.79464 h -1.04263 c -0.86654,0 -1.04264,-0.0671 -1.04264,-0.39733 z m 34.17862,-3.21384 c 0,-0.31411 0.67533,-5.68167 0.81872,-6.5072 0.11941,-0.6875 0.12195,-0.68868 1.48554,-0.68868 1.14822,0 1.36581,0.0591 1.36524,0.37083 -6.2e-4,0.33263 -1.47008,6.12985 -1.71882,6.78089 -0.12253,0.32071 -1.95068,0.3621 -1.95068,0.0441 z m -11.16415,-0.46796 c 0.0698,-0.37879 0.18836,-1.73761 0.26353,-3.01963 0.0752,-1.282 0.18909,-2.64084 0.25315,-3.01961 l 0.11647,-0.68868 h 4.90788 c 2.69933,0 4.95266,0.0715 5.00739,0.15892 0.0547,0.0874 -0.10921,1.75615 -0.3643,3.7083 l -0.46378,3.54938 h -4.92361 -4.92359 z m -9.79441,-0.31786 c -0.07,-0.5536 -0.19338,-2.22234 -0.274,-3.7083 l -0.1466,-2.70176 h 4.5726 c 2.51493,0 4.61927,0.0431 4.67631,0.0958 0.0571,0.0527 -0.0226,1.60224 -0.17708,3.44343 -0.15445,1.84118 -0.28714,3.4668 -0.29487,3.61249 -0.0108,0.20156 -0.99599,0.26488 -4.1215,0.26488 h -4.10744 z m -10.32932,0.42381 c -0.21257,-0.96969 -0.82626,-5.60934 -0.82626,-6.24673 v -0.59592 l 4.64508,0.0574 4.64508,0.0573 0.14908,1.90713 c 0.082,1.04892 0.19396,2.69381 0.24881,3.65532 l 0.0997,1.7482 h -4.41688 -4.41688 z m -3.61255,-3.01962 c -0.20775,-1.92302 -0.33069,-3.56792 -0.27319,-3.65533 0.0575,-0.0874 0.39991,-0.15892 0.76093,-0.15892 0.53217,0 0.68057,0.11027 0.78413,0.58273 0.21399,0.97614 0.82626,5.61133 0.82626,6.25512 0,0.56876 -0.0506,0.60046 -0.8602,0.53856 l -0.8602,-0.0657 z m 36.06175,-5.6684 c 0.008,-0.32051 0.19065,-1.9654 0.40608,-3.65533 l 0.39168,-3.07259 2.08442,-0.0606 2.08442,-0.0606 -0.84718,3.23908 c -1.21389,4.64112 -0.92953,4.19263 -2.65826,4.19263 -1.46026,0 -1.4754,-0.006 -1.46116,-0.58273 z m -11.58948,-1.16547 c 0.0811,-0.96151 0.21557,-2.6064 0.2987,-3.65532 l 0.15114,-1.90713 5.21854,-0.0569 5.21855,-0.057 v 0.5657 c 0,0.68147 -0.68134,6.2189 -0.81134,6.59399 -0.0698,0.20134 -1.30683,0.26488 -5.15748,0.26488 h -5.06567 z m -11.13512,0.74166 c -4.6e-4,-0.5536 -0.0681,-2.22233 -0.15009,-3.7083 l -0.14916,-2.70176 h 5.22607 5.22607 l -0.15137,2.5958 c -0.0832,1.42771 -0.21163,3.09644 -0.28529,3.70831 l -0.13392,1.11249 h -4.79069 -4.79069 l -8.7e-4,-1.00654 z m -10.89145,0.74166 c -0.0532,-0.14568 -0.25724,-1.50451 -0.4533,-3.01962 -0.19608,-1.5151 -0.41201,-3.06464 -0.47985,-3.44342 l -0.12337,-0.68868 h 5.13634 5.13635 l 0.14995,2.5761 c 0.0824,1.41686 0.14994,3.08559 0.14994,3.7083 v 1.1322 h -4.70963 c -3.56314,0 -4.73319,-0.0645 -4.80643,-0.26488 z m -2.97088,-0.2119 c -0.0598,-0.26223 -0.22226,-1.66874 -0.36095,-3.12557 -0.13869,-1.45683 -0.30634,-2.91101 -0.37257,-3.23152 -0.10917,-0.52829 -0.0577,-0.58273 0.55086,-0.58273 h 0.67128 l 0.3782,2.5958 c 0.20801,1.42771 0.44356,3.09644 0.52343,3.70831 l 0.14523,1.11249 h -0.71334 c -0.5546,0 -0.73755,-0.1061 -0.82214,-0.47678 z m 37.57871,-8.58207 c 0.0657,-0.20395 0.28364,-1.80117 0.48421,-3.54937 0.5339,-4.6536 0.12797,-4.13211 3.21642,-4.13211 1.44846,0 2.63357,0.0365 2.63357,0.0811 0,0.11653 -1.82838,7.15705 -1.97378,7.60039 -0.1047,0.31926 -0.42464,0.37083 -2.30078,0.37083 -1.96802,0 -2.16759,-0.036 -2.05964,-0.37083 z m -11.89435,-1.37737 c 0.0805,-0.96151 0.21489,-2.74944 0.2987,-3.97318 l 0.15239,-2.22498 5.52363,-0.0566 5.52362,-0.0567 -0.41389,3.34116 c -0.22764,1.83763 -0.47283,3.65106 -0.54486,4.02984 l -0.13097,0.68868 h -5.27747 -5.27746 z m -12.31919,-0.79463 c -0.0847,-1.34029 -0.20577,-3.12822 -0.26904,-3.97318 l -0.11504,-1.5363 h 5.91819 5.91818 l -0.0873,0.90059 c -0.18961,1.95535 -0.54447,6.35033 -0.54447,6.74336 0,0.40332 -0.16465,0.41442 -5.33324,0.35929 l -5.33324,-0.0569 z m -11.65984,2.3839 c -8.7e-4,-0.34556 -0.92799,-6.96961 -1.03795,-7.4166 l -0.11728,-0.47678 h 5.48321 5.48323 l 0.13239,1.11249 c 0.0728,0.61187 0.20038,2.42364 0.28348,4.02616 l 0.15109,2.91366 h -5.18887 c -2.85387,0 -5.18906,-0.0715 -5.1893,-0.15893 z m -2.61864,-0.31785 c -0.0575,-0.26223 -0.21752,-1.66874 -0.35556,-3.12557 -0.13806,-1.45683 -0.31114,-3.05405 -0.38463,-3.54937 -0.11881,-0.80076 -0.0827,-0.90059 0.32567,-0.90059 0.33771,0 0.49482,0.1823 0.59352,0.68869 0.11926,0.61186 1.06376,7.07775 1.06376,7.28233 0,0.0447 -0.25609,0.0813 -0.5691,0.0813 -0.40627,0 -0.59902,-0.13641 -0.67366,-0.47678 z"
       id="path1582" /><text
       xml:space="preserve"
       style="font-style:normal;font-variant:normal;font-weight:bold;font-stretch:normal;font-size:26.7548px;line-height:1.25;font-family:Calibri;-inkscape-font-specification:'Calibri, Bold';font-variant-ligatures:normal;font-variant-caps:normal;font-variant-numeric:normal;font-variant-east-asian:normal;letter-spacing:0px;word-spacing:0px;stroke-width:0.668872"
       x="9.8015184"
       y="156.64818"
       id="text1638"><tspan
         sodipodi:role="line"
         id="tspan1636"
         style="font-style:normal;font-variant:normal;font-weight:bold;font-stretch:normal;font-size:26.7548px;font-family:Calibri;-inkscape-font-specification:'Calibri, Bold';font-variant-ligatures:normal;font-variant-caps:normal;font-variant-numeric:normal;font-variant-east-asian:normal;stroke-width:0.668872"
         x="9.8015184"
         y="156.64818">MarketFast</tspan></text><path
       style="fill:none;stroke:#000000;stroke-width:0.264583px;stroke-linecap:butt;stroke-linejoin:miter;stroke-opacity:1"
       d="m 151.9468,175.5 -41.07446,-0.8617"
       id="path1757"
       sodipodi:nodetypes="cc" /><path
       style="fill:none;stroke:#000000;stroke-width:0.264583px;stroke-linecap:butt;stroke-linejoin:miter;stroke-opacity:1"
       d="M 177.51064,174.6383 H 159.70212"
       id="path1759" /><path
       style="fill:none;stroke:#000000;stroke-width:0.264583px;stroke-linecap:butt;stroke-linejoin:miter;stroke-opacity:1"
       d="m 157.97873,172.05319 -27.86171,-0.28723"
       id="path1761"
       sodipodi:nodetypes="cc" /><path
       style="fill:none;stroke:#000000;stroke-width:0.264583px;stroke-linecap:butt;stroke-linejoin:miter;stroke-opacity:1"
       d="M 136.7234,162.8617 H 124.65957"
       id="path1763" /><path
       style="fill:none;stroke:#000000;stroke-width:0.264583px;stroke-linecap:butt;stroke-linejoin:miter;stroke-opacity:1"
       d="m 180.09574,172.05319 -19.53192,0.28723"
       id="path1765"
       sodipodi:nodetypes="cc" /><path
       style="fill:none;stroke:#000000;stroke-width:0.264583px;stroke-linecap:butt;stroke-linejoin:miter;stroke-opacity:1"
       d="m 162.57447,168.31915 h -6.89362"
       id="path1767" /><path
       style="fill:none;stroke:#000000;stroke-width:0.264583px;stroke-linecap:butt;stroke-linejoin:miter;stroke-opacity:1"
       d="m 122.3617,170.61702 -16.49132,-0.0349"
       id="path1771"
       sodipodi:nodetypes="cc" /><path
       style="fill:none;stroke:#000000;stroke-width:0.26763px;stroke-linecap:butt;stroke-linejoin:miter;stroke-opacity:1"
       d="m 137.50117,159.26129 -33.04673,0.13295"
       id="path1827"
       sodipodi:nodetypes="cc" /><path
       style="fill:none;stroke:#000000;stroke-width:0.264583px;stroke-linecap:butt;stroke-linejoin:miter;stroke-opacity:1"
       d="M 134.71277,167.45744 97.407187,167.01638"
       id="path1829"
       sodipodi:nodetypes="cc" /><path
       style="fill:none;stroke:#000000;stroke-width:0.264583px;stroke-linecap:butt;stroke-linejoin:miter;stroke-opacity:1"
       d="M 117.47872,163.14893 H 8.6170211"
       id="path1927" /></g></svg>
